<svg
  aria-label="Erato Labs"
  fill="none"
  role="img"
  viewBox="-1 -1 164 30"
  xmlns="http://www.w3.org/2000/svg"
>
  <path
    clip-rule="evenodd"
    d="M149.933 21.1348L149.911 20.8838H145.044L145.056 21.1693C145.107 22.4476 145.517 23.613 146.282 24.6591L146.283 24.6603L146.284 24.6617C147.048 25.6802 148.076 26.4897 149.359 27.0934L149.365 27.096C150.676 27.6761 152.146 27.9633 153.768 27.9633C155.362 27.9633 156.759 27.7019 157.95 27.1698L157.951 27.1699C159.163 26.6394 160.111 25.9005 160.78 24.9482C161.45 23.9952 161.784 22.9123 161.784 21.7087V21.7061L161.784 21.7034C161.758 20.3589 161.389 19.2519 160.652 18.4094C159.939 17.5951 159.085 16.9828 158.091 16.5751C157.146 16.1529 155.936 15.7464 154.467 15.3543C153.372 15.038 152.548 14.7836 151.993 14.5907C151.461 14.3819 151.016 14.1065 150.654 13.7672C150.318 13.4524 150.154 13.0725 150.154 12.61C150.154 12.0194 150.4 11.5505 150.918 11.1831C151.44 10.8133 152.219 10.6099 153.291 10.6099C154.374 10.6099 155.198 10.8683 155.796 11.3553C156.394 11.8428 156.729 12.4934 156.797 13.3293L156.817 13.5815H161.541L161.527 13.2938C161.427 11.2512 160.661 9.61684 159.22 8.41785L159.151 8.36102C157.696 7.13761 155.782 6.53879 153.438 6.53877C151.867 6.53877 150.459 6.80079 149.221 7.33148L149.219 7.33228C148.008 7.86227 147.061 8.60004 146.391 9.55088C145.722 10.4777 145.386 11.5123 145.386 12.6468C145.386 14.0159 145.742 15.1481 146.478 16.0162L146.481 16.0198C147.217 16.8573 148.083 17.4821 149.078 17.8902C150.046 18.2872 151.292 18.6941 152.813 19.1113C154.375 19.5505 155.49 19.9481 156.174 20.3015L156.175 20.3023L156.177 20.3033C156.51 20.4697 156.744 20.6724 156.895 20.9047C157.046 21.1358 157.126 21.4124 157.126 21.7454C157.126 22.3514 156.851 22.8594 156.253 23.2807C155.682 23.6766 154.84 23.8923 153.695 23.8923C152.619 23.8923 151.74 23.6246 151.038 23.1057C150.359 22.5614 149.999 21.9072 149.933 21.1348ZM48.2644 14.9404H42.8308C40.08 14.9404 37.9605 15.5594 36.5211 16.8446L36.5192 16.8462C35.1153 18.1224 34.4114 19.7377 34.4114 21.6719C34.4114 22.8709 34.7184 23.9617 35.3344 24.9371L35.3354 24.9384L35.3362 24.9398C35.9518 25.8889 36.8093 26.6415 37.8996 27.1994L37.9018 27.2006L37.9042 27.2017C38.9973 27.7355 40.2132 28 41.5467 28C43.0784 28 44.5019 27.6733 45.8132 27.018C46.8339 26.5173 47.6592 25.9216 48.2795 25.2273V27.6331H53.0844V15.5083C53.0844 13.7389 52.7083 12.1791 51.947 10.8382L51.872 10.7091C51.0894 9.3472 50.0143 8.30873 48.6492 7.59969C47.3089 6.86627 45.8074 6.50205 44.1514 6.50205C41.6263 6.50206 39.5171 7.21618 37.8452 8.66006L37.8436 8.6614C36.4557 9.8785 35.5454 11.4049 35.115 13.2325L35.0355 13.57H39.7681L39.8342 13.3901C40.0963 12.6767 40.4944 12.0975 41.027 11.6455C41.8014 11.009 42.7753 10.6832 43.9681 10.6832C45.2732 10.6832 46.2837 11.0998 47.031 11.915L47.0323 11.9165L47.0338 11.918C47.7573 12.684 48.1725 13.6847 48.2644 14.9404ZM115.203 14.9404H109.769C107.018 14.9404 104.899 15.5594 103.459 16.8446L103.457 16.8462C102.053 18.1224 101.35 19.7377 101.35 21.6719C101.35 22.8709 101.657 23.9617 102.273 24.9371L102.274 24.9384L102.274 24.9398C102.89 25.8889 103.747 26.6415 104.838 27.1994L104.84 27.2006L104.842 27.2017C105.935 27.7355 107.151 28 108.485 28C110.017 28 111.44 27.6732 112.751 27.0179L112.752 27.018C113.772 26.5173 114.597 25.9216 115.218 25.2273V27.6331H120.023V15.5083C120.023 13.7389 119.646 12.1791 118.885 10.8382L118.81 10.7091C118.028 9.3472 116.952 8.30873 115.587 7.59969C114.247 6.86628 112.746 6.50206 111.09 6.50205C108.565 6.50205 106.455 7.21617 104.783 8.66006L104.782 8.6614C103.393 9.87967 102.482 11.4079 102.052 13.2377L101.973 13.575H106.705L106.771 13.3948C107.033 12.6792 107.431 12.0985 107.965 11.6455C108.74 11.009 109.713 10.6832 110.906 10.6832C112.211 10.6832 113.222 11.0998 113.969 11.915L113.97 11.9165L113.972 11.918C114.695 12.684 115.111 13.6847 115.203 14.9404ZM45.1445 23.2171C44.2472 23.5948 43.342 23.7822 42.4272 23.7822C41.3902 23.7822 40.6146 23.5465 40.0672 23.1086C39.5254 22.6751 39.253 22.0959 39.253 21.3418C39.253 20.6158 39.5229 20.0333 40.07 19.5728C40.6351 19.1173 41.5382 18.8646 42.8308 18.8646H48.2747C48.2346 19.8822 47.9345 20.7462 47.3822 21.4685L47.3814 21.4695C46.7996 22.2375 46.0556 22.8196 45.1445 23.2171ZM81.0657 13.6616C81.5997 14.6135 81.8743 15.7995 81.8743 17.2327C81.8743 18.6638 81.5882 19.8618 81.03 20.8388C80.466 21.8257 79.7313 22.5574 78.8268 23.0445L78.8255 23.0453L78.8243 23.046C77.9361 23.5368 76.979 23.7822 75.9486 23.7822C74.3333 23.7822 73 23.2239 71.9291 22.1072C70.8905 20.9746 70.3529 19.3627 70.3529 17.2327C70.3529 15.7978 70.6162 14.61 71.1275 13.657L71.1282 13.6558L71.1287 13.6546C71.6291 12.6993 72.2889 11.9851 73.1061 11.5007L73.1857 11.4546C74.0731 10.9648 75.0293 10.72 76.0587 10.72C77.089 10.72 78.0461 10.9652 78.9343 11.4561C79.8136 11.942 80.5241 12.6725 81.0643 13.659L81.065 13.6603L81.0657 13.6616ZM112.083 23.2171C111.185 23.5948 110.28 23.7822 109.365 23.7822C108.328 23.7822 107.553 23.5465 107.005 23.1086C106.464 22.6751 106.191 22.0959 106.191 21.3418C106.191 20.6158 106.461 20.0333 107.008 19.5728C107.573 19.1173 108.476 18.8646 109.769 18.8646H115.213C115.173 19.8822 114.873 20.7462 114.32 21.4685L114.32 21.4695C113.738 22.2375 112.994 22.8196 112.083 23.2171ZM138.635 13.7026C139.193 14.6556 139.478 15.8041 139.478 17.1593C139.478 18.514 139.193 19.6896 138.632 20.6944L138.63 20.6987C138.089 21.7095 137.365 22.478 136.458 23.013C135.571 23.5261 134.616 23.7822 133.589 23.7822C132.618 23.7822 131.69 23.542 130.801 23.058L130.715 23.0104C129.834 22.4998 129.111 21.756 128.546 20.7695C128.009 19.7644 127.736 18.5882 127.736 17.2327C127.736 15.8759 128.01 14.7121 128.546 13.7323C129.112 12.7449 129.836 12.0006 130.718 11.49C131.632 10.9751 132.587 10.72 133.589 10.72C134.617 10.72 135.572 10.9763 136.46 11.4901L136.463 11.4923L136.467 11.4943C137.37 11.9807 138.092 12.7111 138.631 13.6957L138.633 13.6992L138.635 13.7026ZM85.2842 22.8378C86.241 21.2012 86.7159 19.3302 86.7159 17.2327C86.7159 15.1366 86.2537 13.2664 85.3224 11.6303C84.3929 9.99749 83.1213 8.73762 81.5101 7.8565C79.9011 6.97656 78.1063 6.53877 76.132 6.53877C74.1576 6.53878 72.3629 6.97656 70.7538 7.8565C69.1426 8.73763 67.871 9.99748 66.9415 11.6303C66.0102 13.2664 65.5482 15.1366 65.5482 17.2327C65.5482 19.3515 65.9972 21.2328 66.9033 22.8689L66.9041 22.8705C67.8087 24.4786 69.0548 25.7375 70.6394 26.643L70.6408 26.6439L70.6422 26.6447C72.2272 27.5253 73.9981 27.9633 75.9486 27.9633C77.923 27.9633 79.7292 27.5255 81.3617 26.6465L81.3631 26.6457C83.0213 25.7412 84.3296 24.4707 85.2842 22.8378ZM30.1828 7.45439C29.3958 7.89589 28.7247 8.47473 28.1702 9.18844V6.50057H23.4388V27.6331H28.1702V16.7191C28.1702 14.6885 28.5836 13.339 29.3356 12.5856C30.1237 11.8207 31.2917 11.417 32.8853 11.417H34.2238V6.53877H33.9493C32.5168 6.53878 31.258 6.84048 30.1828 7.45439ZM65.8625 6.51049H61.4953V0H56.7272V6.51049H54.3425V10.4715H56.7272V27.6331H61.4953V10.4715H65.8625V6.51049ZM94.5637 27.6331H99.3339V0H94.5637V27.6331ZM130.237 7.52168C129.243 8.01908 128.408 8.63773 127.736 9.37891V0H123.005V27.6331H127.736V25.1845C128.403 25.909 129.225 26.5192 130.199 27.0162L130.2 27.0167L130.201 27.0171C131.467 27.6502 132.904 27.9633 134.506 27.9633C136.315 27.9633 137.967 27.5103 139.455 26.6024L139.456 26.6017C140.967 25.6698 142.151 24.3848 143.004 22.7531L143.005 22.7516C143.859 21.0941 144.283 19.2279 144.283 17.1593C144.283 15.0915 143.859 13.249 143.004 11.6389C142.151 10.0072 140.979 8.7452 139.489 7.86133C138.001 6.97851 136.338 6.53878 134.506 6.53877C132.951 6.53877 131.526 6.86511 130.237 7.52168Z"
    fill="#050505"
    fill-rule="evenodd"
  />
  <path
    d="M10.4004 23.8188C11.4308 23.8188 12.3879 23.5735 13.2761 23.0827L13.2773 23.0819L13.2786 23.0812C14.1831 22.5942 14.9178 21.8623 15.4818 20.8753C15.6918 20.5078 15.8966 20.1314 16.0287 19.7014H20.9344C20.7048 20.8421 20.3055 21.9004 19.736 22.8745C18.7814 24.5074 17.4731 25.7779 15.8149 26.6824L15.8135 26.6831C14.1809 27.5622 12.3748 28 10.4004 28C8.44993 28 6.67898 27.5619 5.09398 26.6813L5.09264 26.6805L5.09117 26.6797C3.50663 25.7743 2.26047 24.5153 1.35593 22.9072L1.35512 22.9056C0.449005 21.2696 8.72867e-06 19.3882 0 17.2695C0 15.1733 .46201 13.3032 1.39332 11.6671C2.32281 10.0342 3.59456 8.77436 5.20577 7.89323C6.8148 7.0133 8.60946 6.57551 10.5838 6.5755C12.5581 6.5755 14.3529 7.01328 15.9619 7.89323C17.5731 8.77435 18.8447 10.0342 19.7742 11.6671C20.345 12.6699 20.74 13.7614 20.96 14.9398H16.0287C15.8996 14.4888 15.729 14.0752 15.5174 13.6981L15.5161 13.6957C14.9759 12.7093 14.2654 11.9787 13.3861 11.4928C12.4979 11.002 11.5408 10.7567 10.5105 10.7567C9.4811 10.7567 8.52494 11.0015 7.63749 11.4913C6.74444 12.0085 6.05764 12.7805 5.58054 13.6913L5.58 13.6925L5.57933 13.6937C5.376 14.0727 5.21194 14.4885 5.08807 14.9423C5.08578 14.9507 5.08351 14.9591 5.08125 14.9675H15.9979V19.6736H5.08446C5.34202 20.6633 5.7758 21.4841 6.38101 22.144C7.45191 23.2607 8.78519 23.8188 10.4004 23.8188Z"
    fill="#050505"
  />
</svg>
