<svg width="620" height="200" viewBox="0 0 620 200" fill="none" xmlns="http://www.w3.org/2000/svg">
<path fill-rule="evenodd" clip-rule="evenodd" d="M344.746 106.717H305.934C286.285 106.717 271.146 111.138 260.865 120.318L260.851 120.33C250.824 129.446 245.796 140.984 245.796 154.8C245.796 163.363 247.989 171.155 252.389 178.122L252.395 178.132L252.401 178.141C256.798 184.92 262.924 190.297 270.712 194.281L270.727 194.29L270.744 194.298C278.552 198.111 287.237 200 296.762 200C307.703 200 317.871 197.667 327.237 192.986C334.528 189.409 340.423 185.155 344.854 180.195V197.38H379.174V110.774C379.174 98.1347 376.488 86.9936 371.05 77.4156L370.515 76.4936C364.925 66.7657 357.245 59.3481 347.494 54.2835C337.92 49.0448 327.196 46.4432 315.367 46.4432C297.331 46.4433 282.265 51.5442 270.323 61.8576L270.312 61.8671C260.398 70.5607 253.895 81.4638 250.821 94.5178L250.254 96.9286H284.058L284.53 95.6438C286.402 90.5475 289.245 86.4107 293.05 83.1821C298.581 78.6354 305.538 76.3088 314.058 76.3088C323.38 76.3088 330.598 79.2843 335.936 85.1074L335.945 85.1179L335.956 85.1285C341.123 90.6001 344.089 97.7476 344.746 106.717ZM322.461 165.837C316.052 168.534 309.586 169.873 303.051 169.873C295.644 169.873 290.104 168.189 286.194 165.061C282.324 161.965 280.379 157.828 280.379 152.441C280.379 147.255 282.307 143.095 286.214 139.805C290.251 136.552 296.701 134.747 305.934 134.747H344.819C344.533 142.015 342.389 148.187 338.444 153.346L338.438 153.354C334.283 158.839 328.968 162.997 322.461 165.837ZM579.04 97.5825C582.855 104.382 584.816 112.854 584.816 123.091C584.816 133.313 582.773 141.87 578.786 148.848C574.757 155.898 569.509 161.125 563.049 164.603L563.039 164.609L563.03 164.614C556.686 168.12 549.85 169.873 542.49 169.873C530.952 169.873 521.429 165.885 513.779 157.908C506.361 149.818 502.521 138.305 502.521 123.091C502.521 112.841 504.401 104.357 508.054 97.55L508.059 97.5414L508.062 97.5327C511.637 90.7094 516.349 85.6078 522.186 82.1481L522.755 81.8187C529.094 78.3197 535.924 76.5711 543.276 76.5711C550.636 76.5711 557.472 78.3232 563.816 81.8292C570.097 85.3 575.172 90.5181 579.031 97.5643L579.036 97.5739L579.04 97.5825ZM609.173 163.127C616.007 151.437 619.399 138.073 619.399 123.091C619.399 108.118 616.098 94.7603 609.446 83.0739C602.807 71.4106 593.724 62.4116 582.215 56.1179C570.722 49.8325 557.902 46.7055 543.8 46.7055C529.697 46.7056 516.878 49.8326 505.385 56.1179C493.876 62.4116 484.793 71.4106 478.154 83.0739C471.501 94.7603 468.201 108.118 468.201 123.091C468.201 138.225 471.409 151.663 477.881 163.349L477.887 163.361C484.348 174.847 493.249 183.84 504.567 190.307L504.577 190.314L504.587 190.32C515.908 196.609 528.558 199.738 542.49 199.738C556.593 199.738 569.494 196.611 581.155 190.332L581.165 190.326C593.009 183.866 602.354 174.79 609.173 163.127ZM215.592 53.2456C209.97 56.3992 205.177 60.5338 201.216 65.6317V46.4327H167.42V197.38H201.216V119.422C201.216 104.918 204.169 95.2783 209.54 89.8974C215.17 84.4335 223.512 81.5497 234.895 81.5497H244.456V46.7055H242.495C232.263 46.7055 223.271 48.8605 215.592 53.2456ZM470.447 46.5035H439.252V0H405.194V46.5035H388.161V74.7961H405.194V197.38H439.252V74.7961H470.447V46.5035Z" fill="white"/>
<path d="M74.2886 170.134C81.6485 170.134 88.4847 168.382 94.829 164.876L94.8376 164.871L94.8472 164.866C101.308 161.387 106.556 156.159 110.584 149.11C112.084 146.484 113.547 143.796 114.491 140.724H149.532C147.892 148.872 145.04 156.431 140.972 163.389C134.153 175.053 124.808 184.128 112.963 190.589L112.954 190.593C101.292 196.873 88.3912 200 74.2886 200C60.3566 200 47.707 196.871 36.3856 190.581L36.376 190.575L36.3655 190.569C25.0473 184.102 16.1462 175.109 9.6852 163.623L9.67946 163.612C3.20718 151.926 6.23477e-05 138.487 0 123.353C0 108.381 3.30007 95.0226 9.95232 83.3362C16.5915 71.6728 25.6754 62.674 37.1841 56.3802C48.6771 50.095 61.4962 46.9679 75.5984 46.9679C89.7009 46.9679 102.52 50.0949 114.014 56.3802C125.522 62.6739 134.605 71.6729 141.244 83.3362C145.322 90.499 148.143 98.2954 149.714 106.713H114.491C113.568 103.492 112.35 100.537 110.839 97.8439L110.829 97.8267C106.971 90.7804 101.895 85.5623 95.6151 82.0916C89.2707 78.5855 82.4346 76.8335 75.0747 76.8335C67.7222 76.8335 60.8924 78.582 54.5535 82.081C48.1746 85.7752 43.2689 91.2891 39.861 97.7951L39.8572 97.8037L39.8524 97.8123C38.4 100.519 37.2281 103.49 36.3433 106.731C36.327 106.791 36.3108 106.851 36.2946 106.911H114.271V140.525H36.3176C38.1573 147.595 41.2557 153.458 45.5787 158.172C53.2279 166.148 62.7513 170.134 74.2886 170.134Z" fill="white"/>
</svg>
