<?xml version="1.0" encoding="UTF-8" standalone="no"?>
<svg
   width="130.76613"
   height="49.000004"
   style="vector-effect:non-scaling-stroke"
   version="1.1"
   id="svg1"
   sodipodi:docname="erato_logo.svg"
   inkscape:version="1.4.2 (ebf0e940, 2025-05-08)"
   viewBox="0 0 130.766 48.999957"
   xmlns:inkscape="http://www.inkscape.org/namespaces/inkscape"
   xmlns:sodipodi="http://sodipodi.sourceforge.net/DTD/sodipodi-0.dtd"
   xmlns="http://www.w3.org/2000/svg"
   xmlns:svg="http://www.w3.org/2000/svg">
  <defs
     id="defs1" />
  <sodipodi:namedview
     id="namedview1"
     pagecolor="#ffffff"
     bordercolor="#000000"
     borderopacity="0.25"
     inkscape:showpageshadow="2"
     inkscape:pageopacity="0.0"
     inkscape:pagecheckerboard="0"
     inkscape:deskcolor="#d1d1d1"
     inkscape:zoom="7.9147869"
     inkscape:cx="58.940311"
     inkscape:cy="25.711368"
     inkscape:window-width="2056"
     inkscape:window-height="1180"
     inkscape:window-x="1440"
     inkscape:window-y="1609"
     inkscape:window-maximized="0"
     inkscape:current-layer="g1"
     showgrid="false">
    <inkscape:grid
       id="grid1"
       units="px"
       originx="1.9999999"
       originy="2"
       spacingx="0.99999905"
       spacingy="0.99999904"
       empcolor="#0099e5"
       empopacity="0.30196078"
       color="#0099e5"
       opacity="0.14901961"
       empspacing="5"
       enabled="true"
       visible="false" />
    <inkscape:page
       x="0"
       y="0"
       width="130.76601"
       height="48.999958"
       id="page1"
       margin="2"
       bleed="0" />
  </sodipodi:namedview>
  <!-- The "E" made of 5 horizontal lines with gaps, as start of "Erato" -->
  <!-- Rest of the word "rato" -->
  <g
     id="g1"
     transform="translate(-15.499998,-20.499998)">
    <title
       id="title1">Layer 1</title>
    <g
       id="svg_1"
       fill="none"
       stroke-linecap="round"
       stroke-width="5"
       stroke="#059669">
      <!-- Top line -->
      <line
         id="svg_2"
         y2="25"
         x2="35"
         y1="25"
         x1="20" />
      <line
         id="svg_3"
         y2="25"
         x2="60"
         y1="25"
         x1="42" />
      <!-- Second line -->
      <line
         id="svg_4"
         y2="35"
         x2="32"
         y1="35"
         x1="20" />
      <!-- Middle line -->
      <line
         id="svg_6"
         y2="45"
         x2="33"
         y1="45"
         x1="20" />
      <line
         id="svg_7"
         y2="45"
         x2="52"
         y1="45"
         x1="40" />
      <!-- Fourth line -->
      <line
         id="svg_8"
         y2="55"
         x2="31"
         y1="55"
         x1="20" />
      <!-- Bottom line -->
      <line
         id="svg_10"
         y2="65"
         x2="36"
         y1="65"
         x1="20" />
      <line
         id="svg_11"
         y2="65"
         x2="60"
         y1="65"
         x1="43" />
    </g>
    <path
       d="m 71.837058,56.659582 v 9.144 q 0,1.08 -0.792,1.656 -0.72,0.576 -1.656,0.576 -0.936,0 -1.728,-0.576 -0.72,-0.576 -0.72,-1.656 v -16.92 q 0,-1.224 0.72,-1.8 0.792,-0.648 1.728,-0.648 0.936,0 1.656,0.648 0.792,0.576 0.792,1.8 v 0.288 q 1.008,-1.368 2.592,-2.232 1.656,-0.864 3.456,-0.864 0.864,0 1.728,0.216 0.864,0.216 1.296,0.864 0.432,0.648 0.432,1.44 0,0.936 -0.648,1.728 -0.576,0.72 -1.728,0.72 -0.504,0 -1.08,-0.144 -0.504,-0.144 -1.296,-0.144 -2.088,0 -3.456,1.584 -1.296,1.584 -1.296,4.32 z m 19.634824,11.376 q -3.096,0 -5.544,-1.44 -2.448,-1.44 -3.816,-3.96 -1.368,-2.592 -1.368,-5.76 0,-3.096 1.368,-5.544 1.368,-2.448 3.816,-3.816 2.448,-1.44 5.544,-1.44 2.016,0 3.6,0.72 1.584,0.648 2.736,1.728 0.144,-1.008 0.864,-1.512 0.72,-0.576 1.583998,-0.576 0.936,0 1.656,0.648 0.792,0.576 0.792,1.8 v 16.92 q 0,1.08 -0.792,1.656 -0.72,0.576 -1.656,0.576 -0.935998,0 -1.727998,-0.576 -0.72,-0.576 -0.72,-1.656 v -0.288 q -1.152,1.152 -2.736,1.8 -1.584,0.72 -3.6,0.72 z m 0.432,-4.464 q 2.736,0 4.32,-1.8 1.584,-1.872 1.584,-4.896 0,-2.88 -1.584,-4.608 -1.584,-1.728 -4.32,-1.728 -2.808,0 -4.536,1.728 -1.728,1.728 -1.728,4.608 0,3.024 1.728,4.896 1.728,1.8 4.536,1.8 z m 22.658828,4.464 q -2.808,0 -4.608,-1.728 -1.8,-1.728 -1.8,-5.184 v -9.144 q 0,-0.72 -0.72,-0.72 h -1.296 q -0.936,0 -1.584,-0.576 -0.648,-0.648 -0.648,-1.584 0,-1.008 0.648,-1.656 0.648,-0.648 1.584,-0.648 h 1.296 q 0.72,0 0.72,-0.72 v -6.048 q 0,-1.008 0.648,-1.584 0.72,-0.648 1.728,-0.648 1.08,0 1.728,0.648 0.72,0.576 0.72,1.584 v 6.048 q 0,0.72 0.72,0.72 h 3.888 q 0.864,0 1.512,0.648 0.648,0.648 0.648,1.656 0,0.936 -0.648,1.584 -0.576,0.576 -1.584,0.576 h -3.816 q -0.72,0 -0.72,0.72 v 8.496 q 0,3.024 2.448,3.024 0.72,0 1.512,-0.216 0.792,-0.216 1.08,-0.216 1.008,0 1.512,0.648 0.576,0.648 0.576,1.512 0,0.648 -0.36,1.296 -0.36,0.576 -1.152,0.864 -0.792,0.288 -2.016,0.432 -1.152,0.216 -2.016,0.216 z m 17.18676,0 q -3.168,0 -5.76,-1.44 -2.52,-1.44 -3.96,-3.96 -1.44,-2.592 -1.44,-5.76 0,-3.096 1.44,-5.544 1.44,-2.448 3.96,-3.816 2.592,-1.44 5.76,-1.44 3.168,0 5.688,1.44 2.52,1.368 3.96,3.816 1.512,2.448 1.512,5.544 0,3.168 -1.512,5.76 -1.44,2.52 -3.96,3.96 -2.52,1.44 -5.688,1.44 z m 0,-4.464 q 2.808,0 4.536,-1.8 1.728,-1.872 1.728,-4.896 0,-2.88 -1.728,-4.608 -1.728,-1.728 -4.536,-1.728 -2.88,0 -4.608,1.728 -1.656,1.728 -1.656,4.608 0,3.024 1.656,4.896 1.728,1.8 4.608,1.8 z"
       id="svg_12"
       style="font-size:72px;font-family:Dongle;-inkscape-font-specification:'Dongle, Normal';letter-spacing:-1.67722px;fill:#059669;stroke-width:1.67722"
       transform="scale(1.0094931,0.99059617)"
       aria-label="rato" />
  </g>
</svg>
