<svg fill="none" viewBox="0 0 21 22" xmlns="http://www.w3.org/2000/svg">
  <style>
    .favicon-bg {
      display: none;
    }

    .favicon-mark {
      fill: #050505;
    }

    @media (prefers-color-scheme: dark) {
      .favicon-bg {
        display: block;
        fill: #536970;
      }

      .favicon-mark {
        fill: #ffffff;
      }
    }
  </style>
  <circle class="favicon-bg" cx="10.5" cy="11" r="10.5" />
  <path
    class="favicon-mark"
    d="M10.42 17.706C11.453 17.706 12.411 17.455 13.301 16.951L13.303 16.95L13.304 16.949C14.21 16.449 14.946 15.697 15.511 14.684C15.722 14.307 15.927 13.92 16.059 13.479H20.974C20.744 14.65 20.344 15.736 19.774 16.737C18.817 18.414 17.506 19.718 15.845 20.647L15.844 20.648C14.208 21.55 12.398 22 10.42 22C8.466 22 6.692 21.55 5.104 20.646L5.102 20.645L5.101 20.644C3.513 19.715 2.265 18.422 1.358 16.77L1.358 16.769C.45 15.089 0 13.157 0 10.981C0 8.829 .463 6.908 1.396 5.228C2.327 3.552 3.601 2.258 5.216 1.353C6.828 .45 8.626 0 10.604 0C12.582 0 14.38 .45 15.992 1.353C17.607 2.258 18.881 3.552 19.812 5.228C20.384 6.258 20.78 7.379 21 8.589H16.059C15.93 8.126 15.759 7.701 15.547 7.314L15.546 7.311C15.004 6.298 14.293 5.548 13.412 5.049C12.522 4.545 11.563 4.294 10.531 4.294C9.499 4.294 8.541 4.545 7.652 5.048C6.757 5.579 6.069 6.372 5.591 7.307L5.591 7.308L5.59 7.309C5.386 7.699 5.222 8.126 5.098 8.592L5.091 8.617H16.028V13.45H5.094C5.352 14.466 5.787 15.309 6.393 15.987C7.466 17.133 8.802 17.706 10.42 17.706Z"
  />
</svg>
